<svg width="320" height="187" viewBox="0 0 320 187" fill="none" xmlns="http://www.w3.org/2000/svg">
<path d="M201.667 10.3334C161.765 12.1845 123.88 28.4043 95 56C88.9072 48.0694 81.3901 41.3435 72.8333 36.1667C63.4125 30.3475 52.582 27.21 41.5094 27.0925C30.4368 26.9751 19.5422 29.882 10 35.5C10.2917 47.3575 13.6351 58.9396 19.7075 69.1283C25.7799 79.317 34.3762 87.7684 44.6667 93.6667C34.3762 99.565 25.7799 108.016 19.7075 118.205C13.6351 128.394 10.2917 139.976 10 151.833C19.4816 157.552 30.3442 160.574 41.4167 160.574C52.4892 160.574 63.3517 157.552 72.8333 151.833C81.449 146.459 88.9702 139.504 95 131.333C123.88 158.929 161.765 175.149 201.667 177C285 177 310 93.6667 310 93.6667C310 93.6667 285 10.3334 201.667 10.3334Z" stroke="#A69C94" stroke-width="20" stroke-linecap="round" stroke-linejoin="round"/>
</svg>
